<?xml version="1.0" encoding="UTF-8"?>
<svg version="1.1" xmlns="http://www.w3.org/2000/svg" width="960" height="1280">
<path d="M0 0 C1.48328495 -0.00489303 2.96656609 -0.01108474 4.44984078 -0.01845789 C8.51322282 -0.03482865 12.57641046 -0.03254533 16.6398139 -0.02708292 C21.02715263 -0.02440915 25.41443996 -0.03895111 29.80175781 -0.05117798 C38.39268738 -0.07222023 46.98354943 -0.07677349 55.57450172 -0.07499009 C62.55934259 -0.07368174 69.54416242 -0.07749034 76.52899933 -0.08491516 C78.54208255 -0.0870144 80.55516577 -0.089112 82.56824899 -0.09120798 C83.57027102 -0.09225151 84.57229304 -0.09329504 85.60467938 -0.09437019 C104.55109466 -0.11326804 123.49747122 -0.11222389 142.44389203 -0.10540086 C159.7656284 -0.09982698 177.0872168 -0.12064503 194.40891859 -0.15376133 C212.20467783 -0.18751921 230.00036623 -0.20266396 247.79615808 -0.1980443 C257.78314355 -0.19580157 267.7699923 -0.20101387 277.75695038 -0.22593689 C286.26034625 -0.24697722 294.76353043 -0.25051501 303.26693508 -0.2316373 C307.60268959 -0.2224959 311.9380497 -0.22128713 316.27377319 -0.24199295 C320.2490378 -0.26076678 324.22358677 -0.25612862 328.19882467 -0.23344713 C329.63082297 -0.22927741 331.06287683 -0.23340632 332.49481627 -0.24704307 C347.87596107 -0.38345418 360.25412161 5.19923073 371.56890869 15.44909668 C377.11011883 21.1742474 380.51145843 28.07048194 383.45172119 35.39440918 C383.96548093 36.44150178 383.96548093 36.44150178 384.48961965 37.50974777 C385.73917263 41.25627254 385.72756773 44.78656582 385.70472085 48.68961674 C385.70777395 49.52713476 385.71082705 50.36465278 385.71397266 51.22755014 C385.72180653 54.0522223 385.71532698 56.87668254 385.7089901 59.70135593 C385.71168177 61.74836138 385.71524862 63.79536583 385.71961457 65.84236839 C385.72911283 71.50274357 385.72605893 77.16305475 385.72105902 82.82343317 C385.71780415 88.96822986 385.7260651 95.11301253 385.73287737 101.25780481 C385.74320653 112.03922887 385.74608551 122.82062926 385.74396515 133.6020565 C385.7417181 145.1732952 385.74377793 156.74452102 385.75111008 168.31575775 C385.75179904 169.4111429 385.75179904 169.4111429 385.75250191 170.52865703 C385.75438514 173.5027858 385.75629652 176.47691454 385.75824429 179.45104327 C385.77854694 210.49724271 385.78465679 241.54343494 385.78582852 272.58964027 C385.78595801 275.9328208 385.78609389 279.27600134 385.78623533 282.61918187 C385.78626934 283.44877815 385.78630335 284.27837444 385.78633839 285.13311 C385.78715491 303.50773242 385.79153351 321.88235345 385.79654702 340.25697513 C385.79860371 347.8204237 385.80058376 355.38387229 385.80257952 362.94732088 C385.8028007 363.78299371 385.80302188 364.61866655 385.80324976 365.47966281 C385.8159006 413.37773575 385.82414771 461.27580779 385.82323265 509.17388248 C385.82320109 510.96692971 385.82316962 512.75997693 385.82313823 514.55302415 C385.82299146 522.64867904 385.82281512 530.74433392 385.82263047 538.83998881 C385.82254822 542.45012413 385.82246792 546.06025945 385.82238784 549.67039477 C385.82234705 551.47733433 385.82230501 553.2842739 385.82226172 555.09121346 C385.82090129 612.22606207 385.83553371 669.36088588 385.86334229 726.49572754 C385.87034422 740.88959528 385.87728309 755.28346304 385.88387108 769.67733097 C385.88427683 770.56359508 385.88468257 771.4498592 385.88510062 772.3629798 C385.89752927 799.67548819 385.90506149 826.98799454 385.90758705 854.30050564 C385.90766695 855.15793207 385.90774685 856.0153585 385.90782918 856.89876755 C385.90953568 875.72083743 385.91005813 894.54290718 385.90948842 913.36497712 C385.90929545 920.09981935 385.90919137 926.83466159 385.90913097 933.56950383 C385.90911514 935.2449936 385.90909473 936.92048337 385.90906972 938.59597315 C385.90871697 965.30150731 385.92011747 992.00702026 385.93737735 1018.71254833 C385.95467263 1045.60959951 385.95906374 1072.50662131 385.94585471 1099.4036757 C385.9440301 1103.12020148 385.94234355 1106.8367273 385.94073868 1110.55325317 C385.9404185 1111.28179664 385.94009833 1112.0103401 385.93976845 1112.76096064 C385.93506184 1124.29826292 385.94377896 1135.83551441 385.95808105 1147.37280714 C385.97186275 1158.71679753 385.97103933 1170.06069344 385.95569678 1181.40468919 C385.94790053 1187.47331367 385.94647741 1193.54175774 385.96261148 1199.61036981 C385.97716042 1205.13096038 385.97330685 1210.65122019 385.95476375 1216.171796 C385.95132037 1218.15672286 385.95458039 1220.14167557 385.96536616 1222.12657611 C386.03954554 1236.75741832 384.66047792 1248.43228046 375.45172119 1260.39440918 C375.00054932 1261.00929199 374.54937744 1261.6241748 374.08453369 1262.25769043 C367.98456109 1270.02912446 359.5283206 1274.84123204 350.45172119 1278.39440918 C349.71219741 1278.73616684 348.97267363 1279.0779245 348.21074003 1279.43003846 C345.04289637 1280.53730733 342.55553758 1280.64608795 339.20195097 1280.64855951 C337.93238207 1280.65433522 336.66281316 1280.66011094 335.35477248 1280.66606167 C333.94541973 1280.66237486 332.53606746 1280.65850466 331.12671566 1280.6544714 C329.6237411 1280.65746748 328.12076807 1280.66133751 326.61779776 1280.66600373 C322.46794072 1280.67632127 318.31816862 1280.6741208 314.16830428 1280.66994837 C309.66093749 1280.66758926 305.15359195 1280.67674197 300.64623314 1280.68443257 C292.73976065 1280.69629869 284.83331126 1280.70064459 276.92683029 1280.70011139 C265.1694755 1280.69931938 253.41214994 1280.7098554 241.65480294 1280.72252696 C218.21096263 1280.74729072 194.76712937 1280.75605235 171.32327778 1280.76106345 C170.10856467 1280.76132462 168.89385157 1280.7615858 167.64232898 1280.76185489 C166.42522178 1280.76211516 165.20811458 1280.76237544 163.95412535 1280.7626436 C150.47755953 1280.76572364 137.00099568 1280.77222761 123.52443123 1280.77885628 C82.83280629 1280.79850695 42.14118348 1280.81490964 1.44955349 1280.81773281 C0.14746916 1280.81782687 -1.15461516 1280.81792093 -2.49615659 1280.81801784 C-7.77312592 1280.81839633 -13.05009524 1280.81876033 -18.32706457 1280.81912082 C-22.29899601 1280.81939254 -26.27092745 1280.81966922 -30.24285889 1280.81994629 C-31.55533692 1280.82003431 -32.86781495 1280.82012233 -34.22006504 1280.82021302 C-75.46043146 1280.82311857 -116.70075102 1280.84521376 -157.94110107 1280.88146973 C-204.25192773 1280.9221821 -250.56272246 1280.94589128 -296.873568 1280.94619232 C-301.8104715 1280.94628915 -306.74737499 1280.94645587 -311.68427849 1280.94667244 C-312.89990933 1280.94671655 -314.11554018 1280.94676067 -315.36800832 1280.94680612 C-334.9448805 1280.94792675 -354.5217058 1280.96534701 -374.09856288 1280.98849176 C-393.77014179 1281.01131724 -413.44165726 1281.01557055 -433.11324454 1281.00094246 C-444.80407579 1280.99278169 -456.4947074 1280.99851493 -468.1855145 1281.02412331 C-475.99343226 1281.03984812 -483.80120795 1281.0374252 -491.60912224 1281.02021658 C-496.05882929 1281.0109235 -500.50815122 1281.0095159 -504.95782859 1281.03018265 C-509.0095061 1281.04884084 -513.06048328 1281.04429548 -517.1121341 1281.02159171 C-518.56527391 1281.01744991 -520.01846846 1281.02160293 -521.47154972 1281.0352894 C-536.91312032 1281.1710482 -549.30228351 1275.63342845 -560.66546631 1265.33972168 C-566.20667644 1259.61457096 -569.60801605 1252.71833642 -572.54827881 1245.39440918 C-572.89063963 1244.71763738 -573.23300046 1244.04086558 -573.58573586 1243.34358555 C-574.93153496 1239.22013433 -574.82704035 1235.37839958 -574.80834103 1231.06696224 C-574.8121467 1230.11929891 -574.81595237 1229.17163559 -574.81987336 1228.19525519 C-574.83022688 1225.00148887 -574.82627601 1221.80789903 -574.82243347 1218.61412048 C-574.82688384 1216.30846754 -574.83219722 1214.00281613 -574.8383022 1211.69716698 C-574.85251695 1205.34673804 -574.85414483 1198.99635796 -574.85370529 1192.64591539 C-574.85421416 1186.50487727 -574.865985 1180.36385522 -574.87639659 1174.22282758 C-574.9011461 1159.32865049 -574.90992053 1144.43448452 -574.91493308 1129.54028971 C-574.91519425 1128.76876186 -574.91545543 1127.99723401 -574.91572452 1127.20232654 C-574.91598479 1126.42925432 -574.91624506 1125.65618211 -574.91651323 1124.85968346 C-574.91959482 1116.2949077 -574.92609938 1107.73013503 -574.93272591 1099.1653614 C-574.95237573 1073.29714197 -574.96877867 1047.42892588 -574.97160244 1021.56069851 C-574.9716965 1020.73312947 -574.97179056 1019.90556042 -574.97188747 1019.05291353 C-574.97226596 1015.69910813 -574.97262995 1012.34530274 -574.97299045 1008.99149734 C-574.97326217 1006.46719126 -574.97353885 1003.94288518 -574.97381592 1001.4185791 C-574.97390394 1000.58445073 -574.97399196 999.75032237 -574.97408265 998.89091738 C-574.97698743 972.6881907 -574.99907628 946.48553782 -575.03533936 920.28283691 C-575.07607432 890.84807587 -575.09976108 861.41336511 -575.10006195 831.97857434 C-575.10015878 828.83910532 -575.1003255 825.69963632 -575.10054207 822.56016731 C-575.10058618 821.78714462 -575.1006303 821.01412193 -575.10067575 820.21767431 C-575.10179524 807.78190864 -575.1191989 795.34621695 -575.14236139 782.91047509 C-575.16521549 770.4082134 -575.16942174 757.90605155 -575.15481209 745.40377664 C-575.14738292 738.63169022 -575.14854031 731.85987509 -575.17122269 725.08781433 C-575.19179451 718.88646602 -575.18922829 712.68557085 -575.16834784 706.48422755 C-575.16484958 704.24258679 -575.16977707 702.00091346 -575.18405228 699.75931542 C-575.31183963 678.30805259 -575.31183963 678.30805259 -569.54827881 668.39440918 C-569.12851459 667.63198565 -568.70875038 666.86956213 -568.27626604 666.08403486 C-561.57149217 654.29355241 -551.94918793 647.37287635 -539.54827881 642.39440918 C-538.86379071 642.05164507 -538.17930262 641.70888096 -537.47407246 641.35573006 C-533.46663919 640.03901749 -529.78662008 640.12487944 -525.59495544 640.15390015 C-524.24097498 640.15133687 -524.24097498 640.15133687 -522.85964137 640.14872181 C-519.8347933 640.14542737 -516.810167 640.15642995 -513.78533936 640.1673584 C-511.61714178 640.16792252 -509.44894382 640.16760593 -507.28074646 640.16647339 C-501.39276717 640.16589892 -495.50486917 640.17766853 -489.61690879 640.1916213 C-483.46430099 640.20411293 -477.31169139 640.20529793 -471.15907288 640.20767212 C-459.50736815 640.21389149 -447.8557009 640.23030853 -436.20401269 640.2503711 C-422.93934176 640.27271585 -409.67466905 640.28371995 -396.40998399 640.29376197 C-369.12272815 640.31467433 -341.83550558 640.34985923 -314.54827881 640.39440918 C-314.55017741 639.80649432 -314.55207601 639.21857946 -314.55403215 638.612849 C-314.66600919 603.74065564 -314.7517553 568.8684933 -314.80360546 533.99615745 C-314.80985872 529.80566554 -314.81633036 525.61517399 -314.82293701 521.42468262 C-314.82424856 520.59045821 -314.82556012 519.7562338 -314.82691141 518.89672986 C-314.84864684 505.40267266 -314.88805806 491.90872235 -314.93404279 478.41472849 C-314.98085936 464.56072519 -315.00858518 450.70677773 -315.01872128 436.85269856 C-315.02556969 428.30922841 -315.04717156 419.76606044 -315.08786114 411.22268334 C-315.11436379 405.35805031 -315.12226286 399.49357268 -315.1157857 393.62888417 C-315.11259429 390.24892879 -315.12012604 386.86992307 -315.14430618 383.48999023 C-315.16929991 379.81536025 -315.16315919 376.1420077 -315.14955139 372.46734619 C-315.1641156 371.41283477 -315.17867981 370.35832334 -315.19368535 369.27185702 C-315.06013479 355.86690868 -308.33861485 344.04120871 -299.49359131 334.27722168 C-293.76844059 328.73601154 -286.87220605 325.33467194 -279.54827881 322.39440918 C-278.86300771 322.05164507 -278.17773661 321.70888096 -277.47169971 321.35573006 C-273.4761887 320.04186925 -269.81235352 320.12482969 -265.63291931 320.15390015 C-264.28506417 320.15133687 -264.28506417 320.15133687 -262.90997964 320.14872181 C-259.89895072 320.14542749 -256.88814463 320.15642975 -253.87713623 320.1673584 C-251.71879074 320.16792252 -249.56044487 320.16760593 -247.40209961 320.16647339 C-241.54097882 320.16589893 -235.67993968 320.17766838 -229.81883788 320.1916213 C-223.69425732 320.20411309 -217.56967495 320.20529794 -211.44508362 320.20767212 C-199.84650276 320.21389144 -188.24795955 320.23030841 -176.64939529 320.2503711 C-163.44518272 320.272716 -150.24096837 320.28371999 -137.03674161 320.29376197 C-109.8738998 320.31467422 -82.71109141 320.34985902 -55.54827881 320.39440918 C-55.54903825 319.82092639 -55.54979769 319.24744359 -55.55058014 318.65658253 C-55.59536569 284.64451648 -55.62966678 250.63245714 -55.65040947 216.62036802 C-55.65291079 212.5337365 -55.65549944 208.44710505 -55.65814209 204.36047363 C-55.65892902 203.14014501 -55.65892902 203.14014501 -55.65973185 201.89516328 C-55.66842728 188.73350406 -55.68419251 175.57186238 -55.7025844 162.41021355 C-55.72130743 148.89860326 -55.73240061 135.38700212 -55.7364558 121.87537938 C-55.73919587 113.54237631 -55.74784079 105.20942278 -55.76411174 96.87643496 C-55.77470829 91.15714161 -55.7778734 85.43787377 -55.77528156 79.71857133 C-55.77400442 76.42206128 -55.77702451 73.12565546 -55.78668976 69.82915688 C-55.79667724 66.24648451 -55.79423368 62.66402209 -55.78878784 59.0813446 C-55.79752637 57.53606316 -55.79752637 57.53606316 -55.80644143 55.95956391 C-55.76734058 46.40681334 -54.67413878 37.61418877 -50.23577881 29.08190918 C-49.37532959 27.38614746 -49.37532959 27.38614746 -48.49749756 25.65612793 C-42.30867629 15.30008433 -33.37483853 8.45844518 -22.54827881 3.39440918 C-21.46839565 2.87950676 -20.3885125 2.36460434 -19.27590561 1.83409882 C-13.05298943 -0.45435835 -6.54083905 -0.02671971 0 0 Z " fill="#ECBE2B" transform="translate(574.5482788085938,-0.3944091796875)"/>
<path d="M0 0 C1.48328495 -0.00489303 2.96656609 -0.01108474 4.44984078 -0.01845789 C8.51322282 -0.03482865 12.57641046 -0.03254533 16.6398139 -0.02708292 C21.02715263 -0.02440915 25.41443996 -0.03895111 29.80175781 -0.05117798 C38.39268738 -0.07222023 46.98354943 -0.07677349 55.57450172 -0.07499009 C62.55934259 -0.07368174 69.54416242 -0.07749034 76.52899933 -0.08491516 C78.54208255 -0.0870144 80.55516577 -0.089112 82.56824899 -0.09120798 C83.57027102 -0.09225151 84.57229304 -0.09329504 85.60467938 -0.09437019 C104.55109466 -0.11326804 123.49747122 -0.11222389 142.44389203 -0.10540086 C159.7656284 -0.09982698 177.0872168 -0.12064503 194.40891859 -0.15376133 C212.20467783 -0.18751921 230.00036623 -0.20266396 247.79615808 -0.1980443 C257.78314355 -0.19580157 267.7699923 -0.20101387 277.75695038 -0.22593689 C286.26034625 -0.24697722 294.76353043 -0.25051501 303.26693508 -0.2316373 C307.60268959 -0.2224959 311.9380497 -0.22128713 316.27377319 -0.24199295 C320.2490378 -0.26076678 324.22358677 -0.25612862 328.19882467 -0.23344713 C329.63082297 -0.22927741 331.06287683 -0.23340632 332.49481627 -0.24704307 C347.87596107 -0.38345418 360.25412161 5.19923073 371.56890869 15.44909668 C377.11011883 21.1742474 380.51145843 28.07048194 383.45172119 35.39440918 C383.79422768 36.09247091 384.13673417 36.79053265 384.48961965 37.50974777 C385.73917263 41.25627254 385.72756773 44.78656582 385.70472085 48.68961674 C385.70777395 49.52713476 385.71082705 50.36465278 385.71397266 51.22755014 C385.72180653 54.0522223 385.71532698 56.87668254 385.7089901 59.70135593 C385.71168177 61.74836138 385.71524862 63.79536583 385.71961457 65.84236839 C385.72911283 71.50274357 385.72605893 77.16305475 385.72105902 82.82343317 C385.71780415 88.96822986 385.7260651 95.11301253 385.73287737 101.25780481 C385.74320653 112.03922887 385.74608551 122.82062926 385.74396515 133.6020565 C385.7417181 145.1732952 385.74377793 156.74452102 385.75111008 168.31575775 C385.75179904 169.4111429 385.75179904 169.4111429 385.75250191 170.52865703 C385.75438514 173.5027858 385.75629652 176.47691454 385.75824429 179.45104327 C385.77854694 210.49724271 385.78465679 241.54343494 385.78582852 272.58964027 C385.78595801 275.9328208 385.78609389 279.27600134 385.78623533 282.61918187 C385.78626934 283.44877815 385.78630335 284.27837444 385.78633839 285.13311 C385.78715491 303.50773242 385.79153351 321.88235345 385.79654702 340.25697513 C385.79860371 347.8204237 385.80058376 355.38387229 385.80257952 362.94732088 C385.8028007 363.78299371 385.80302188 364.61866655 385.80324976 365.47966281 C385.8159006 413.37773575 385.82414771 461.27580779 385.82323265 509.17388248 C385.82320109 510.96692971 385.82316962 512.75997693 385.82313823 514.55302415 C385.82299146 522.64867904 385.82281512 530.74433392 385.82263047 538.83998881 C385.82254822 542.45012413 385.82246792 546.06025945 385.82238784 549.67039477 C385.82234705 551.47733433 385.82230501 553.2842739 385.82226172 555.09121346 C385.82090129 612.22606207 385.83553371 669.36088588 385.86334229 726.49572754 C385.87034422 740.88959528 385.87728309 755.28346304 385.88387108 769.67733097 C385.88427683 770.56359508 385.88468257 771.4498592 385.88510062 772.3629798 C385.89752927 799.67548819 385.90506149 826.98799454 385.90758705 854.30050564 C385.90766695 855.15793207 385.90774685 856.0153585 385.90782918 856.89876755 C385.90953568 875.72083743 385.91005813 894.54290718 385.90948842 913.36497712 C385.90929545 920.09981935 385.90919137 926.83466159 385.90913097 933.56950383 C385.90911514 935.2449936 385.90909473 936.92048337 385.90906972 938.59597315 C385.90871697 965.30150731 385.92011747 992.00702026 385.93737735 1018.71254833 C385.95467263 1045.60959951 385.95906374 1072.50662131 385.94585471 1099.4036757 C385.9440301 1103.12020148 385.94234355 1106.8367273 385.94073868 1110.55325317 C385.9404185 1111.28179664 385.94009833 1112.0103401 385.93976845 1112.76096064 C385.93506184 1124.29826292 385.94377896 1135.83551441 385.95808105 1147.37280714 C385.97186275 1158.71679753 385.97103933 1170.06069344 385.95569678 1181.40468919 C385.94790053 1187.47331367 385.94647741 1193.54175774 385.96261148 1199.61036981 C385.97716042 1205.13096038 385.97330685 1210.65122019 385.95476375 1216.171796 C385.95132037 1218.15672286 385.95458039 1220.14167557 385.96536616 1222.12657611 C386.03954554 1236.75741832 384.66047792 1248.43228046 375.45172119 1260.39440918 C375.00054932 1261.00929199 374.54937744 1261.6241748 374.08453369 1262.25769043 C367.98456109 1270.02912446 359.5283206 1274.84123204 350.45172119 1278.39440918 C349.76795819 1278.73644819 349.08419519 1279.07848721 348.3797121 1279.43089104 C344.37114691 1280.7499953 340.69178422 1280.66395084 336.49839783 1280.63491821 C335.59574418 1280.63662706 334.69309054 1280.63833591 333.76308376 1280.64009655 C330.73823568 1280.64339099 327.71360939 1280.63238841 324.68878174 1280.62145996 C322.52058416 1280.62089584 320.3523862 1280.62121243 318.18418884 1280.62234497 C312.29620956 1280.62291944 306.40831155 1280.61114983 300.52035117 1280.59719706 C294.36774338 1280.58470543 288.21513378 1280.58352043 282.06251526 1280.58114624 C270.41081054 1280.57492687 258.75914329 1280.55850983 247.10745507 1280.53844726 C233.84278414 1280.51610251 220.57811144 1280.50509841 207.31342638 1280.49505639 C180.02617053 1280.47414403 152.73894796 1280.43895913 125.45172119 1280.39440918 C125.45132101 1279.602815 125.45092083 1278.81122083 125.45050852 1277.99563895 C125.40684067 1191.82665655 125.359475 1105.65767648 125.29273987 1019.4887085 C125.2917443 1018.20186507 125.29074874 1016.91502164 125.289723 1015.58918295 C125.26859269 988.30471267 125.24686385 961.0202429 125.22441581 933.73577367 C125.21313995 920.02972897 125.20198233 906.32368417 125.1909365 892.61763928 C125.1892696 890.55014378 125.18759933 888.48264828 125.18592891 886.41515278 C125.16023889 854.581458 125.13708348 822.74776386 125.12127686 790.9140625 C125.12093699 790.22969343 125.12059713 789.54532435 125.12024697 788.84021682 C125.11478282 777.80627451 125.10953155 766.77233209 125.10430852 755.73838966 C125.08245766 709.58711277 125.05106846 663.43585533 125.00673006 617.2845933 C125.00056768 610.86549241 124.99451722 604.44639141 124.98853493 598.02729034 C124.98676361 596.13220465 124.98676361 596.13220465 124.9849565 594.1988344 C124.9662237 573.84901655 124.95781817 553.49920686 124.95325995 533.14938145 C124.94845927 512.6986505 124.93281358 492.24795074 124.90605553 471.79723653 C124.89048233 459.64213507 124.8832666 447.48709511 124.8879519 435.33198422 C124.89026196 427.21440461 124.8817431 419.09688316 124.86439708 410.97932187 C124.85482143 406.35274596 124.84997505 401.72629859 124.85832556 397.09971735 C124.86583531 392.8875505 124.85949289 388.67563642 124.84228052 384.46350011 C124.83850041 382.95220379 124.83968755 381.44088439 124.84656518 379.92959899 C124.9206843 362.24513337 120.93772675 347.40614128 108.45172119 334.39440918 C99.82398961 327.02787424 89.21715901 321.30928015 77.73168945 321.2361908 C75.98171158 321.22150757 75.98171158 321.22150757 74.19638062 321.20652771 C72.2823494 321.19789452 72.2823494 321.19789452 70.32965088 321.18908691 C68.96946925 321.17950449 67.60929057 321.16949419 66.24911499 321.15908813 C62.55940581 321.1320725 58.86968388 321.11104487 55.17993069 321.09108615 C51.32285176 321.06920597 47.46581198 321.04182723 43.60876465 321.01502991 C36.30614683 320.96513049 29.00350725 320.92018146 21.70084691 320.87700754 C13.38649717 320.82761165 5.07218671 320.77270224 -3.24212503 320.71732795 C-20.34413998 320.60355014 -37.4461914 320.49670196 -54.54827881 320.39440918 C-54.66283123 284.94538523 -54.75088196 249.49639385 -54.80360546 214.04722278 C-54.80985867 209.85801964 -54.81633031 205.66881686 -54.82293701 201.47961426 C-54.82424856 200.64565216 -54.82556012 199.81169006 -54.82691141 198.95245638 C-54.84864234 185.4655412 -54.88805105 171.97873306 -54.93404279 158.49188129 C-54.98087193 144.64352322 -55.00858783 130.79522105 -55.01872128 116.94678706 C-55.02556709 108.40792605 -55.04715474 99.86936763 -55.08786114 91.33059981 C-55.11437935 85.46782843 -55.12225938 79.60521248 -55.1157857 73.74238554 C-55.11259669 70.36433128 -55.12010501 66.98722708 -55.14430618 63.60919571 C-55.27997609 43.68985568 -53.86604921 29.4946609 -39.64202881 14.36706543 C-34.60062418 9.64591397 -28.78329085 6.31078578 -22.54827881 3.39440918 C-21.46839565 2.87950676 -20.3885125 2.36460434 -19.27590561 1.83409882 C-13.05298943 -0.45435835 -6.54083905 -0.02671971 0 0 Z " fill="#D28F0A" transform="translate(574.5482788085938,-0.3944091796875)"/>
<path d="M0 0 C1.24837707 -0.00706559 2.49675415 -0.01413118 3.78296083 -0.02141088 C5.16563348 -0.01915958 6.54830582 -0.01671309 7.93097782 -0.01409245 C9.4019967 -0.01854521 10.87301318 -0.02385939 12.34402615 -0.02996117 C16.38748271 -0.04414782 20.43086243 -0.04580433 24.47434032 -0.04536426 C28.835177 -0.04701195 33.19598197 -0.06007785 37.5568018 -0.07155704 C47.09433119 -0.09441302 56.63183833 -0.10232878 66.16939139 -0.10738349 C72.12734893 -0.1106408 78.08530001 -0.11716362 84.0432539 -0.12438488 C100.54561594 -0.14395413 117.04797198 -0.16035559 133.55034637 -0.16326141 C134.60655373 -0.16344898 135.66276108 -0.16363655 136.75097472 -0.16382981 C138.89210959 -0.16419605 141.03324447 -0.16455975 143.17437934 -0.16492092 C144.23721861 -0.16510373 145.30005789 -0.16528654 146.39510441 -0.16547489 C147.99131476 -0.16574572 147.99131476 -0.16574572 149.61977179 -0.16602201 C166.84981172 -0.16956111 184.07972647 -0.1965655 201.30972301 -0.23397278 C219.00820982 -0.27208884 236.70663459 -0.29141915 254.40516335 -0.29172093 C264.33860935 -0.29230487 274.27190616 -0.30075571 284.20531368 -0.32971859 C292.66699514 -0.35427697 301.12847302 -0.36148556 309.59018051 -0.34647106 C313.90389125 -0.33931952 318.21720038 -0.34008316 322.53086567 -0.36288166 C326.4884577 -0.38359676 330.44534258 -0.38075594 334.402928 -0.36000682 C335.82630759 -0.3565356 337.24973951 -0.3613203 338.67305057 -0.37571125 C355.44828004 -0.53424229 367.74333039 4.73631143 379.9226923 16.23271847 C390.06348959 27.03921361 394.32604244 40.32562199 394.20199203 54.92154121 C394.20545357 55.94050422 394.2089151 56.95946722 394.21248153 58.00930789 C394.22039584 61.40946482 394.20698545 64.80919196 394.1936121 68.20932674 C394.19492093 70.67720238 394.19754878 73.14507761 394.2013796 75.61295062 C394.2066831 80.97103895 394.20270526 86.32899976 394.19046497 91.68706799 C394.17231508 99.65421858 394.17146171 107.62130632 394.17409094 115.58847382 C394.17802745 128.9922893 394.16802816 142.39606032 394.15003872 155.79986286 C394.1322771 169.06797347 394.12073875 182.33606556 394.11748028 195.60418797 C394.11727406 196.42969451 394.11706784 197.25520105 394.11685537 198.10572295 C394.11584035 202.29819116 394.11493621 206.49065938 394.11407474 210.68312762 C394.10777642 240.3649537 394.08757247 270.04675561 394.05916691 299.72856808 C394.03160616 328.56092354 394.01035897 357.39327239 393.99764347 386.22563839 C393.9970516 387.55915419 393.9970516 387.55915419 393.99644778 388.91960971 C393.99249216 397.8475602 393.98866473 406.77551074 393.9849312 415.70346132 C393.97732292 433.89011937 393.96885916 452.07677699 393.95987797 470.26343441 C393.9594661 471.09959562 393.95905423 471.93575683 393.95862988 472.79725625 C393.93103598 528.61820171 393.88343885 584.43913345 393.83284855 640.26006222 C343.07950405 640.37452742 292.3261726 640.4626212 241.57272439 640.51538887 C235.57967963 640.52164234 229.58663512 640.52811395 223.59359074 640.53472042 C222.40049255 640.53603197 221.20739437 640.53734353 219.9781417 640.53869482 C200.66422788 640.56044639 181.35038855 640.5998666 162.0365189 640.6458262 C142.2160481 640.69259765 122.39561628 640.72035909 102.57509255 640.73050469 C90.34652653 640.73736239 78.11817102 640.75901536 65.88966981 640.79964455 C57.50207272 640.82609136 49.11458434 640.83405878 40.72694859 640.8275691 C35.88898102 640.82436927 31.0513811 640.82924546 26.21347904 640.85608959 C21.77904306 640.88051469 17.34522017 640.88159009 12.91075531 640.86455669 C11.3116167 640.86245314 9.71243902 640.86871728 8.11337671 640.88447813 C-7.86535445 641.03273552 -20.46476908 635.91251448 -32.28433895 625.20537472 C-37.82554909 619.480224 -41.22688869 612.58398946 -44.16715145 605.26006222 C-44.50951228 604.58329042 -44.8518731 603.90651862 -45.2046085 603.20923859 C-46.5504076 599.08578737 -46.445913 595.24405262 -46.42721367 590.93261528 C-46.43101934 589.98495195 -46.43482501 589.03728863 -46.43874601 588.06090823 C-46.44909952 584.8671419 -46.44514865 581.67355207 -46.44130611 578.47977352 C-46.44575649 576.17412058 -46.45106986 573.86846917 -46.45717484 571.56282002 C-46.47138959 565.21239108 -46.47301747 558.862011 -46.47257793 552.51156843 C-46.47308681 546.3705303 -46.48485764 540.22950825 -46.49526923 534.08848061 C-46.52001874 519.19430353 -46.52879318 504.30013756 -46.53380572 489.40594274 C-46.53406689 488.6344149 -46.53432807 487.86288705 -46.53459716 487.06797957 C-46.53485743 486.29490736 -46.53511771 485.52183514 -46.53538587 484.7253365 C-46.53846746 476.16056074 -46.54497202 467.59578807 -46.55159855 459.03101444 C-46.57124837 433.16279501 -46.58765131 407.29457892 -46.59047508 381.42635155 C-46.59056914 380.5987825 -46.5906632 379.77121346 -46.59076012 378.91856657 C-46.5911386 375.56476117 -46.5915026 372.21095578 -46.5918631 368.85715038 C-46.59213481 366.3328443 -46.59241149 363.80853822 -46.59268856 361.28423214 C-46.59277658 360.45010377 -46.59286461 359.6159754 -46.5929553 358.75657042 C-46.59586007 332.55384374 -46.61794892 306.35119085 -46.654212 280.14848995 C-46.69494697 250.71372891 -46.71863372 221.27901815 -46.7189346 191.84422737 C-46.71903142 188.70475836 -46.71919814 185.56528936 -46.71941471 182.42582035 C-46.71945883 181.65279766 -46.71950294 180.87977497 -46.71954839 180.08332735 C-46.72066788 167.64756168 -46.73807155 155.21186998 -46.76123403 142.77612813 C-46.78408813 130.27386644 -46.78829438 117.77170459 -46.77368473 105.26942968 C-46.76625557 98.49734325 -46.76741296 91.72552813 -46.79009533 84.95346737 C-46.81066716 78.75211906 -46.80810093 72.55122389 -46.78722049 66.34988058 C-46.78372222 64.10823983 -46.78864971 61.86656649 -46.80292492 59.62496846 C-46.93071227 38.17370563 -46.93071227 38.17370563 -41.16715145 28.26006222 C-40.74738724 27.49763869 -40.32762302 26.73521517 -39.89513868 25.9496879 C-33.19036481 14.15920545 -23.56806057 7.23852938 -11.16715145 2.26006222 C-10.42519856 1.91770139 -9.68324567 1.57534057 -8.91880935 1.22260517 C-5.7804119 0.12477889 -3.32212635 0.00601208 0 0 Z " fill="#F6DA5E" transform="translate(46.16715145111084,639.7399377822876)"/>
</svg>
